<?xml version="1.0" encoding="utf-8" standalone="no"?>
<!DOCTYPE svg PUBLIC "-//W3C//DTD SVG 1.1//EN"
  "http://www.w3.org/Graphics/SVG/1.1/DTD/svg11.dtd">
<svg xmlns:xlink="http://www.w3.org/1999/xlink" width="409.798125pt" height="326.087937pt" viewBox="0 0 409.798125 326.087937" xmlns="http://www.w3.org/2000/svg" version="1.1">
 <metadata>
  <rdf:RDF xmlns:dc="http://purl.org/dc/elements/1.1/" xmlns:cc="http://creativecommons.org/ns#" xmlns:rdf="http://www.w3.org/1999/02/22-rdf-syntax-ns#">
   <cc:Work>
    <dc:type rdf:resource="http://purl.org/dc/dcmitype/StillImage"/>
    <dc:date>2024-01-10T15:55:02.056649</dc:date>
    <dc:format>image/svg+xml</dc:format>
    <dc:creator>
     <cc:Agent>
      <dc:title>Matplotlib v3.7.2, https://matplotlib.org/</dc:title>
     </cc:Agent>
    </dc:creator>
   </cc:Work>
  </rdf:RDF>
 </metadata>
 <defs>
  <style type="text/css">*{stroke-linejoin: round; stroke-linecap: butt}</style>
 </defs>
 <g id="figure_1">
  <g id="patch_1">
   <path d="M 0 326.087937 
L 409.798125 326.087937 
L 409.798125 0 
L 0 0 
z
" style="fill: #ffffff"/>
  </g>
  <g id="axes_1">
   <g id="patch_2">
    <path d="M 45.478125 288.430125 
L 402.598125 288.430125 
L 402.598125 22.318125 
L 45.478125 22.318125 
z
" style="fill: #ffffff"/>
   </g>
   <g id="patch_3">
    <path d="M 48.72467 154.584801 
L 74.697034 154.584801 
L 74.697034 113.262573 
L 48.72467 113.262573 
L 48.72467 154.584801 
z
" clip-path="url(#p4b9f1b9727)" style="fill: #ea96a3; stroke: #474747; stroke-width: 1.5; stroke-linejoin: miter"/>
   </g>
   <g id="patch_4">
    <path d="M 81.190125 151.101898 
L 107.162489 151.101898 
L 107.162489 121.248432 
L 81.190125 121.248432 
L 81.190125 151.101898 
z
" clip-path="url(#p4b9f1b9727)" style="fill: #dc924e; stroke: #474747; stroke-width: 1.5; stroke-linejoin: miter"/>
   </g>
   <g id="patch_5">
    <path d="M 113.65558 158.792283 
L 139.627943 158.792283 
L 139.627943 127.988784 
L 113.65558 127.988784 
L 113.65558 158.792283 
z
" clip-path="url(#p4b9f1b9727)" style="fill: #b39d48; stroke: #474747; stroke-width: 1.5; stroke-linejoin: miter"/>
   </g>
   <g id="patch_6">
    <path d="M 146.121034 148.839608 
L 172.093398 148.839608 
L 172.093398 117.604161 
L 146.121034 117.604161 
L 146.121034 148.839608 
z
" clip-path="url(#p4b9f1b9727)" style="fill: #8ea546; stroke: #474747; stroke-width: 1.5; stroke-linejoin: miter"/>
   </g>
   <g id="patch_7">
    <path d="M 178.586489 146.897472 
L 204.558852 146.897472 
L 204.558852 122.343603 
L 178.586489 122.343603 
L 178.586489 146.897472 
z
" clip-path="url(#p4b9f1b9727)" style="fill: #48b067; stroke: #474747; stroke-width: 1.5; stroke-linejoin: miter"/>
   </g>
   <g id="patch_8">
    <path d="M 211.051943 156.368388 
L 237.024307 156.368388 
L 237.024307 121.248432 
L 211.051943 121.248432 
L 211.051943 156.368388 
z
" clip-path="url(#p4b9f1b9727)" style="fill: #4aac98; stroke: #474747; stroke-width: 1.5; stroke-linejoin: miter"/>
   </g>
   <g id="patch_9">
    <path d="M 243.517398 170.752636 
L 269.489761 170.752636 
L 269.489761 134.183396 
L 243.517398 134.183396 
L 243.517398 170.752636 
z
" clip-path="url(#p4b9f1b9727)" style="fill: #4dabb0; stroke: #474747; stroke-width: 1.5; stroke-linejoin: miter"/>
   </g>
   <g id="patch_10">
    <path d="M 275.982852 176.355505 
L 301.955216 176.355505 
L 301.955216 135.415619 
L 275.982852 135.415619 
L 275.982852 176.355505 
z
" clip-path="url(#p4b9f1b9727)" style="fill: #54acd3; stroke: #474747; stroke-width: 1.5; stroke-linejoin: miter"/>
   </g>
   <g id="patch_11">
    <path d="M 308.448307 183.784762 
L 334.42067 183.784762 
L 334.42067 145.259579 
L 308.448307 145.259579 
L 308.448307 183.784762 
z
" clip-path="url(#p4b9f1b9727)" style="fill: #a9aceb; stroke: #474747; stroke-width: 1.5; stroke-linejoin: miter"/>
   </g>
   <g id="patch_12">
    <path d="M 340.913761 194.680763 
L 366.886125 194.680763 
L 366.886125 153.996625 
L 340.913761 153.996625 
L 340.913761 194.680763 
z
" clip-path="url(#p4b9f1b9727)" style="fill: #d795e8; stroke: #474747; stroke-width: 1.5; stroke-linejoin: miter"/>
   </g>
   <g id="patch_13">
    <path d="M 373.379216 212.105907 
L 399.35158 212.105907 
L 399.35158 171.781721 
L 373.379216 171.781721 
L 373.379216 212.105907 
z
" clip-path="url(#p4b9f1b9727)" style="fill: #e88fc9; stroke: #474747; stroke-width: 1.5; stroke-linejoin: miter"/>
   </g>
   <g id="matplotlib.axis_1">
    <g id="xtick_1">
     <g id="line2d_1">
      <defs>
       <path id="ma42dac62f2" d="M 0 0 
L 0 3.5 
" style="stroke: #000000; stroke-width: 0.8"/>
      </defs>
      <g>
       <use xlink:href="#ma42dac62f2" x="61.710852" y="288.430125" style="stroke: #000000; stroke-width: 0.8"/>
      </g>
     </g>
     <g id="text_1">
      <!-- 2 -->
      <g transform="translate(58.529602 303.028562) scale(0.1 -0.1)">
       <defs>
        <path id="DejaVuSans-32" d="M 1228 531 
L 3431 531 
L 3431 0 
L 469 0 
L 469 531 
Q 828 903 1448 1529 
Q 2069 2156 2228 2338 
Q 2531 2678 2651 2914 
Q 2772 3150 2772 3378 
Q 2772 3750 2511 3984 
Q 2250 4219 1831 4219 
Q 1534 4219 1204 4116 
Q 875 4013 500 3803 
L 500 4441 
Q 881 4594 1212 4672 
Q 1544 4750 1819 4750 
Q 2544 4750 2975 4387 
Q 3406 4025 3406 3419 
Q 3406 3131 3298 2873 
Q 3191 2616 2906 2266 
Q 2828 2175 2409 1742 
Q 1991 1309 1228 531 
z
" transform="scale(0.015625)"/>
       </defs>
       <use xlink:href="#DejaVuSans-32"/>
      </g>
     </g>
    </g>
    <g id="xtick_2">
     <g id="line2d_2">
      <g>
       <use xlink:href="#ma42dac62f2" x="94.176307" y="288.430125" style="stroke: #000000; stroke-width: 0.8"/>
      </g>
     </g>
     <g id="text_2">
      <!-- 3 -->
      <g transform="translate(90.995057 303.028562) scale(0.1 -0.1)">
       <defs>
        <path id="DejaVuSans-33" d="M 2597 2516 
Q 3050 2419 3304 2112 
Q 3559 1806 3559 1356 
Q 3559 666 3084 287 
Q 2609 -91 1734 -91 
Q 1441 -91 1130 -33 
Q 819 25 488 141 
L 488 750 
Q 750 597 1062 519 
Q 1375 441 1716 441 
Q 2309 441 2620 675 
Q 2931 909 2931 1356 
Q 2931 1769 2642 2001 
Q 2353 2234 1838 2234 
L 1294 2234 
L 1294 2753 
L 1863 2753 
Q 2328 2753 2575 2939 
Q 2822 3125 2822 3475 
Q 2822 3834 2567 4026 
Q 2313 4219 1838 4219 
Q 1578 4219 1281 4162 
Q 984 4106 628 3988 
L 628 4550 
Q 988 4650 1302 4700 
Q 1616 4750 1894 4750 
Q 2613 4750 3031 4423 
Q 3450 4097 3450 3541 
Q 3450 3153 3228 2886 
Q 3006 2619 2597 2516 
z
" transform="scale(0.015625)"/>
       </defs>
       <use xlink:href="#DejaVuSans-33"/>
      </g>
     </g>
    </g>
    <g id="xtick_3">
     <g id="line2d_3">
      <g>
       <use xlink:href="#ma42dac62f2" x="126.641761" y="288.430125" style="stroke: #000000; stroke-width: 0.8"/>
      </g>
     </g>
     <g id="text_3">
      <!-- 4 -->
      <g transform="translate(123.460511 303.028562) scale(0.1 -0.1)">
       <defs>
        <path id="DejaVuSans-34" d="M 2419 4116 
L 825 1625 
L 2419 1625 
L 2419 4116 
z
M 2253 4666 
L 3047 4666 
L 3047 1625 
L 3713 1625 
L 3713 1100 
L 3047 1100 
L 3047 0 
L 2419 0 
L 2419 1100 
L 313 1100 
L 313 1709 
L 2253 4666 
z
" transform="scale(0.015625)"/>
       </defs>
       <use xlink:href="#DejaVuSans-34"/>
      </g>
     </g>
    </g>
    <g id="xtick_4">
     <g id="line2d_4">
      <g>
       <use xlink:href="#ma42dac62f2" x="159.107216" y="288.430125" style="stroke: #000000; stroke-width: 0.8"/>
      </g>
     </g>
     <g id="text_4">
      <!-- 5 -->
      <g transform="translate(155.925966 303.028562) scale(0.1 -0.1)">
       <defs>
        <path id="DejaVuSans-35" d="M 691 4666 
L 3169 4666 
L 3169 4134 
L 1269 4134 
L 1269 2991 
Q 1406 3038 1543 3061 
Q 1681 3084 1819 3084 
Q 2600 3084 3056 2656 
Q 3513 2228 3513 1497 
Q 3513 744 3044 326 
Q 2575 -91 1722 -91 
Q 1428 -91 1123 -41 
Q 819 9 494 109 
L 494 744 
Q 775 591 1075 516 
Q 1375 441 1709 441 
Q 2250 441 2565 725 
Q 2881 1009 2881 1497 
Q 2881 1984 2565 2268 
Q 2250 2553 1709 2553 
Q 1456 2553 1204 2497 
Q 953 2441 691 2322 
L 691 4666 
z
" transform="scale(0.015625)"/>
       </defs>
       <use xlink:href="#DejaVuSans-35"/>
      </g>
     </g>
    </g>
    <g id="xtick_5">
     <g id="line2d_5">
      <g>
       <use xlink:href="#ma42dac62f2" x="191.57267" y="288.430125" style="stroke: #000000; stroke-width: 0.8"/>
      </g>
     </g>
     <g id="text_5">
      <!-- 6 -->
      <g transform="translate(188.39142 303.028562) scale(0.1 -0.1)">
       <defs>
        <path id="DejaVuSans-36" d="M 2113 2584 
Q 1688 2584 1439 2293 
Q 1191 2003 1191 1497 
Q 1191 994 1439 701 
Q 1688 409 2113 409 
Q 2538 409 2786 701 
Q 3034 994 3034 1497 
Q 3034 2003 2786 2293 
Q 2538 2584 2113 2584 
z
M 3366 4563 
L 3366 3988 
Q 3128 4100 2886 4159 
Q 2644 4219 2406 4219 
Q 1781 4219 1451 3797 
Q 1122 3375 1075 2522 
Q 1259 2794 1537 2939 
Q 1816 3084 2150 3084 
Q 2853 3084 3261 2657 
Q 3669 2231 3669 1497 
Q 3669 778 3244 343 
Q 2819 -91 2113 -91 
Q 1303 -91 875 529 
Q 447 1150 447 2328 
Q 447 3434 972 4092 
Q 1497 4750 2381 4750 
Q 2619 4750 2861 4703 
Q 3103 4656 3366 4563 
z
" transform="scale(0.015625)"/>
       </defs>
       <use xlink:href="#DejaVuSans-36"/>
      </g>
     </g>
    </g>
    <g id="xtick_6">
     <g id="line2d_6">
      <g>
       <use xlink:href="#ma42dac62f2" x="224.038125" y="288.430125" style="stroke: #000000; stroke-width: 0.8"/>
      </g>
     </g>
     <g id="text_6">
      <!-- 7 -->
      <g transform="translate(220.856875 303.028562) scale(0.1 -0.1)">
       <defs>
        <path id="DejaVuSans-37" d="M 525 4666 
L 3525 4666 
L 3525 4397 
L 1831 0 
L 1172 0 
L 2766 4134 
L 525 4134 
L 525 4666 
z
" transform="scale(0.015625)"/>
       </defs>
       <use xlink:href="#DejaVuSans-37"/>
      </g>
     </g>
    </g>
    <g id="xtick_7">
     <g id="line2d_7">
      <g>
       <use xlink:href="#ma42dac62f2" x="256.50358" y="288.430125" style="stroke: #000000; stroke-width: 0.8"/>
      </g>
     </g>
     <g id="text_7">
      <!-- 8 -->
      <g transform="translate(253.32233 303.028562) scale(0.1 -0.1)">
       <defs>
        <path id="DejaVuSans-38" d="M 2034 2216 
Q 1584 2216 1326 1975 
Q 1069 1734 1069 1313 
Q 1069 891 1326 650 
Q 1584 409 2034 409 
Q 2484 409 2743 651 
Q 3003 894 3003 1313 
Q 3003 1734 2745 1975 
Q 2488 2216 2034 2216 
z
M 1403 2484 
Q 997 2584 770 2862 
Q 544 3141 544 3541 
Q 544 4100 942 4425 
Q 1341 4750 2034 4750 
Q 2731 4750 3128 4425 
Q 3525 4100 3525 3541 
Q 3525 3141 3298 2862 
Q 3072 2584 2669 2484 
Q 3125 2378 3379 2068 
Q 3634 1759 3634 1313 
Q 3634 634 3220 271 
Q 2806 -91 2034 -91 
Q 1263 -91 848 271 
Q 434 634 434 1313 
Q 434 1759 690 2068 
Q 947 2378 1403 2484 
z
M 1172 3481 
Q 1172 3119 1398 2916 
Q 1625 2713 2034 2713 
Q 2441 2713 2670 2916 
Q 2900 3119 2900 3481 
Q 2900 3844 2670 4047 
Q 2441 4250 2034 4250 
Q 1625 4250 1398 4047 
Q 1172 3844 1172 3481 
z
" transform="scale(0.015625)"/>
       </defs>
       <use xlink:href="#DejaVuSans-38"/>
      </g>
     </g>
    </g>
    <g id="xtick_8">
     <g id="line2d_8">
      <g>
       <use xlink:href="#ma42dac62f2" x="288.969034" y="288.430125" style="stroke: #000000; stroke-width: 0.8"/>
      </g>
     </g>
     <g id="text_8">
      <!-- 9 -->
      <g transform="translate(285.787784 303.028562) scale(0.1 -0.1)">
       <defs>
        <path id="DejaVuSans-39" d="M 703 97 
L 703 672 
Q 941 559 1184 500 
Q 1428 441 1663 441 
Q 2288 441 2617 861 
Q 2947 1281 2994 2138 
Q 2813 1869 2534 1725 
Q 2256 1581 1919 1581 
Q 1219 1581 811 2004 
Q 403 2428 403 3163 
Q 403 3881 828 4315 
Q 1253 4750 1959 4750 
Q 2769 4750 3195 4129 
Q 3622 3509 3622 2328 
Q 3622 1225 3098 567 
Q 2575 -91 1691 -91 
Q 1453 -91 1209 -44 
Q 966 3 703 97 
z
M 1959 2075 
Q 2384 2075 2632 2365 
Q 2881 2656 2881 3163 
Q 2881 3666 2632 3958 
Q 2384 4250 1959 4250 
Q 1534 4250 1286 3958 
Q 1038 3666 1038 3163 
Q 1038 2656 1286 2365 
Q 1534 2075 1959 2075 
z
" transform="scale(0.015625)"/>
       </defs>
       <use xlink:href="#DejaVuSans-39"/>
      </g>
     </g>
    </g>
    <g id="xtick_9">
     <g id="line2d_9">
      <g>
       <use xlink:href="#ma42dac62f2" x="321.434489" y="288.430125" style="stroke: #000000; stroke-width: 0.8"/>
      </g>
     </g>
     <g id="text_9">
      <!-- 10 -->
      <g transform="translate(315.071989 303.028562) scale(0.1 -0.1)">
       <defs>
        <path id="DejaVuSans-31" d="M 794 531 
L 1825 531 
L 1825 4091 
L 703 3866 
L 703 4441 
L 1819 4666 
L 2450 4666 
L 2450 531 
L 3481 531 
L 3481 0 
L 794 0 
L 794 531 
z
" transform="scale(0.015625)"/>
        <path id="DejaVuSans-30" d="M 2034 4250 
Q 1547 4250 1301 3770 
Q 1056 3291 1056 2328 
Q 1056 1369 1301 889 
Q 1547 409 2034 409 
Q 2525 409 2770 889 
Q 3016 1369 3016 2328 
Q 3016 3291 2770 3770 
Q 2525 4250 2034 4250 
z
M 2034 4750 
Q 2819 4750 3233 4129 
Q 3647 3509 3647 2328 
Q 3647 1150 3233 529 
Q 2819 -91 2034 -91 
Q 1250 -91 836 529 
Q 422 1150 422 2328 
Q 422 3509 836 4129 
Q 1250 4750 2034 4750 
z
" transform="scale(0.015625)"/>
       </defs>
       <use xlink:href="#DejaVuSans-31"/>
       <use xlink:href="#DejaVuSans-30" x="63.623047"/>
      </g>
     </g>
    </g>
    <g id="xtick_10">
     <g id="line2d_10">
      <g>
       <use xlink:href="#ma42dac62f2" x="353.899943" y="288.430125" style="stroke: #000000; stroke-width: 0.8"/>
      </g>
     </g>
     <g id="text_10">
      <!-- 11 -->
      <g transform="translate(347.537443 303.028562) scale(0.1 -0.1)">
       <use xlink:href="#DejaVuSans-31"/>
       <use xlink:href="#DejaVuSans-31" x="63.623047"/>
      </g>
     </g>
    </g>
    <g id="xtick_11">
     <g id="line2d_11">
      <g>
       <use xlink:href="#ma42dac62f2" x="386.365398" y="288.430125" style="stroke: #000000; stroke-width: 0.8"/>
      </g>
     </g>
     <g id="text_11">
      <!-- 12 -->
      <g transform="translate(380.002898 303.028562) scale(0.1 -0.1)">
       <use xlink:href="#DejaVuSans-31"/>
       <use xlink:href="#DejaVuSans-32" x="63.623047"/>
      </g>
     </g>
    </g>
    <g id="text_12">
     <!-- VCG_Len -->
     <g transform="translate(201.808437 316.530125) scale(0.1 -0.1)">
      <defs>
       <path id="DejaVuSans-56" d="M 1831 0 
L 50 4666 
L 709 4666 
L 2188 738 
L 3669 4666 
L 4325 4666 
L 2547 0 
L 1831 0 
z
" transform="scale(0.015625)"/>
       <path id="DejaVuSans-43" d="M 4122 4306 
L 4122 3641 
Q 3803 3938 3442 4084 
Q 3081 4231 2675 4231 
Q 1875 4231 1450 3742 
Q 1025 3253 1025 2328 
Q 1025 1406 1450 917 
Q 1875 428 2675 428 
Q 3081 428 3442 575 
Q 3803 722 4122 1019 
L 4122 359 
Q 3791 134 3420 21 
Q 3050 -91 2638 -91 
Q 1578 -91 968 557 
Q 359 1206 359 2328 
Q 359 3453 968 4101 
Q 1578 4750 2638 4750 
Q 3056 4750 3426 4639 
Q 3797 4528 4122 4306 
z
" transform="scale(0.015625)"/>
       <path id="DejaVuSans-47" d="M 3809 666 
L 3809 1919 
L 2778 1919 
L 2778 2438 
L 4434 2438 
L 4434 434 
Q 4069 175 3628 42 
Q 3188 -91 2688 -91 
Q 1594 -91 976 548 
Q 359 1188 359 2328 
Q 359 3472 976 4111 
Q 1594 4750 2688 4750 
Q 3144 4750 3555 4637 
Q 3966 4525 4313 4306 
L 4313 3634 
Q 3963 3931 3569 4081 
Q 3175 4231 2741 4231 
Q 1884 4231 1454 3753 
Q 1025 3275 1025 2328 
Q 1025 1384 1454 906 
Q 1884 428 2741 428 
Q 3075 428 3337 486 
Q 3600 544 3809 666 
z
" transform="scale(0.015625)"/>
       <path id="DejaVuSans-5f" d="M 3263 -1063 
L 3263 -1509 
L -63 -1509 
L -63 -1063 
L 3263 -1063 
z
" transform="scale(0.015625)"/>
       <path id="DejaVuSans-4c" d="M 628 4666 
L 1259 4666 
L 1259 531 
L 3531 531 
L 3531 0 
L 628 0 
L 628 4666 
z
" transform="scale(0.015625)"/>
       <path id="DejaVuSans-65" d="M 3597 1894 
L 3597 1613 
L 953 1613 
Q 991 1019 1311 708 
Q 1631 397 2203 397 
Q 2534 397 2845 478 
Q 3156 559 3463 722 
L 3463 178 
Q 3153 47 2828 -22 
Q 2503 -91 2169 -91 
Q 1331 -91 842 396 
Q 353 884 353 1716 
Q 353 2575 817 3079 
Q 1281 3584 2069 3584 
Q 2775 3584 3186 3129 
Q 3597 2675 3597 1894 
z
M 3022 2063 
Q 3016 2534 2758 2815 
Q 2500 3097 2075 3097 
Q 1594 3097 1305 2825 
Q 1016 2553 972 2059 
L 3022 2063 
z
" transform="scale(0.015625)"/>
       <path id="DejaVuSans-6e" d="M 3513 2113 
L 3513 0 
L 2938 0 
L 2938 2094 
Q 2938 2591 2744 2837 
Q 2550 3084 2163 3084 
Q 1697 3084 1428 2787 
Q 1159 2491 1159 1978 
L 1159 0 
L 581 0 
L 581 3500 
L 1159 3500 
L 1159 2956 
Q 1366 3272 1645 3428 
Q 1925 3584 2291 3584 
Q 2894 3584 3203 3211 
Q 3513 2838 3513 2113 
z
" transform="scale(0.015625)"/>
      </defs>
      <use xlink:href="#DejaVuSans-56"/>
      <use xlink:href="#DejaVuSans-43" x="68.408203"/>
      <use xlink:href="#DejaVuSans-47" x="138.232422"/>
      <use xlink:href="#DejaVuSans-5f" x="215.722656"/>
      <use xlink:href="#DejaVuSans-4c" x="265.722656"/>
      <use xlink:href="#DejaVuSans-65" x="319.685547"/>
      <use xlink:href="#DejaVuSans-6e" x="381.208984"/>
     </g>
    </g>
   </g>
   <g id="matplotlib.axis_2">
    <g id="ytick_1">
     <g id="line2d_12">
      <defs>
       <path id="m2b6f5ef379" d="M 0 0 
L -3.5 0 
" style="stroke: #000000; stroke-width: 0.8"/>
      </defs>
      <g>
       <use xlink:href="#m2b6f5ef379" x="45.478125" y="147.172834" style="stroke: #000000; stroke-width: 0.8"/>
      </g>
     </g>
     <g id="text_13">
      <!-- $\mathdefault{10^{0}}$ -->
      <g transform="translate(20.878125 150.972053) scale(0.1 -0.1)">
       <use xlink:href="#DejaVuSans-31" transform="translate(0 0.765625)"/>
       <use xlink:href="#DejaVuSans-30" transform="translate(63.623047 0.765625)"/>
       <use xlink:href="#DejaVuSans-30" transform="translate(128.203125 39.046875) scale(0.7)"/>
      </g>
     </g>
    </g>
    <g id="ytick_2">
     <g id="line2d_13">
      <defs>
       <path id="m215d860679" d="M 0 0 
L -2 0 
" style="stroke: #000000; stroke-width: 0.6"/>
      </defs>
      <g>
       <use xlink:href="#m215d860679" x="45.478125" y="279.950277" style="stroke: #000000; stroke-width: 0.6"/>
      </g>
     </g>
    </g>
    <g id="ytick_3">
     <g id="line2d_14">
      <g>
       <use xlink:href="#m215d860679" x="45.478125" y="248.223904" style="stroke: #000000; stroke-width: 0.6"/>
      </g>
     </g>
    </g>
    <g id="ytick_4">
     <g id="line2d_15">
      <g>
       <use xlink:href="#m215d860679" x="45.478125" y="223.615018" style="stroke: #000000; stroke-width: 0.6"/>
      </g>
     </g>
    </g>
    <g id="ytick_5">
     <g id="line2d_16">
      <g>
       <use xlink:href="#m215d860679" x="45.478125" y="203.508094" style="stroke: #000000; stroke-width: 0.6"/>
      </g>
     </g>
    </g>
    <g id="ytick_6">
     <g id="line2d_17">
      <g>
       <use xlink:href="#m215d860679" x="45.478125" y="186.507931" style="stroke: #000000; stroke-width: 0.6"/>
      </g>
     </g>
    </g>
    <g id="ytick_7">
     <g id="line2d_18">
      <g>
       <use xlink:href="#m215d860679" x="45.478125" y="171.781721" style="stroke: #000000; stroke-width: 0.6"/>
      </g>
     </g>
    </g>
    <g id="ytick_8">
     <g id="line2d_19">
      <g>
       <use xlink:href="#m215d860679" x="45.478125" y="158.792283" style="stroke: #000000; stroke-width: 0.6"/>
      </g>
     </g>
    </g>
    <g id="ytick_9">
     <g id="line2d_20">
      <g>
       <use xlink:href="#m215d860679" x="45.478125" y="70.730651" style="stroke: #000000; stroke-width: 0.6"/>
      </g>
     </g>
    </g>
    <g id="ytick_10">
     <g id="line2d_21">
      <g>
       <use xlink:href="#m215d860679" x="45.478125" y="26.01484" style="stroke: #000000; stroke-width: 0.6"/>
      </g>
     </g>
    </g>
    <g id="text_14">
     <!-- Reads -->
     <g transform="translate(14.798438 170.542875) rotate(-90) scale(0.1 -0.1)">
      <defs>
       <path id="DejaVuSans-52" d="M 2841 2188 
Q 3044 2119 3236 1894 
Q 3428 1669 3622 1275 
L 4263 0 
L 3584 0 
L 2988 1197 
Q 2756 1666 2539 1819 
Q 2322 1972 1947 1972 
L 1259 1972 
L 1259 0 
L 628 0 
L 628 4666 
L 2053 4666 
Q 2853 4666 3247 4331 
Q 3641 3997 3641 3322 
Q 3641 2881 3436 2590 
Q 3231 2300 2841 2188 
z
M 1259 4147 
L 1259 2491 
L 2053 2491 
Q 2509 2491 2742 2702 
Q 2975 2913 2975 3322 
Q 2975 3731 2742 3939 
Q 2509 4147 2053 4147 
L 1259 4147 
z
" transform="scale(0.015625)"/>
       <path id="DejaVuSans-61" d="M 2194 1759 
Q 1497 1759 1228 1600 
Q 959 1441 959 1056 
Q 959 750 1161 570 
Q 1363 391 1709 391 
Q 2188 391 2477 730 
Q 2766 1069 2766 1631 
L 2766 1759 
L 2194 1759 
z
M 3341 1997 
L 3341 0 
L 2766 0 
L 2766 531 
Q 2569 213 2275 61 
Q 1981 -91 1556 -91 
Q 1019 -91 701 211 
Q 384 513 384 1019 
Q 384 1609 779 1909 
Q 1175 2209 1959 2209 
L 2766 2209 
L 2766 2266 
Q 2766 2663 2505 2880 
Q 2244 3097 1772 3097 
Q 1472 3097 1187 3025 
Q 903 2953 641 2809 
L 641 3341 
Q 956 3463 1253 3523 
Q 1550 3584 1831 3584 
Q 2591 3584 2966 3190 
Q 3341 2797 3341 1997 
z
" transform="scale(0.015625)"/>
       <path id="DejaVuSans-64" d="M 2906 2969 
L 2906 4863 
L 3481 4863 
L 3481 0 
L 2906 0 
L 2906 525 
Q 2725 213 2448 61 
Q 2172 -91 1784 -91 
Q 1150 -91 751 415 
Q 353 922 353 1747 
Q 353 2572 751 3078 
Q 1150 3584 1784 3584 
Q 2172 3584 2448 3432 
Q 2725 3281 2906 2969 
z
M 947 1747 
Q 947 1113 1208 752 
Q 1469 391 1925 391 
Q 2381 391 2643 752 
Q 2906 1113 2906 1747 
Q 2906 2381 2643 2742 
Q 2381 3103 1925 3103 
Q 1469 3103 1208 2742 
Q 947 2381 947 1747 
z
" transform="scale(0.015625)"/>
       <path id="DejaVuSans-73" d="M 2834 3397 
L 2834 2853 
Q 2591 2978 2328 3040 
Q 2066 3103 1784 3103 
Q 1356 3103 1142 2972 
Q 928 2841 928 2578 
Q 928 2378 1081 2264 
Q 1234 2150 1697 2047 
L 1894 2003 
Q 2506 1872 2764 1633 
Q 3022 1394 3022 966 
Q 3022 478 2636 193 
Q 2250 -91 1575 -91 
Q 1294 -91 989 -36 
Q 684 19 347 128 
L 347 722 
Q 666 556 975 473 
Q 1284 391 1588 391 
Q 1994 391 2212 530 
Q 2431 669 2431 922 
Q 2431 1156 2273 1281 
Q 2116 1406 1581 1522 
L 1381 1569 
Q 847 1681 609 1914 
Q 372 2147 372 2553 
Q 372 3047 722 3315 
Q 1072 3584 1716 3584 
Q 2034 3584 2315 3537 
Q 2597 3491 2834 3397 
z
" transform="scale(0.015625)"/>
      </defs>
      <use xlink:href="#DejaVuSans-52"/>
      <use xlink:href="#DejaVuSans-65" x="64.982422"/>
      <use xlink:href="#DejaVuSans-61" x="126.505859"/>
      <use xlink:href="#DejaVuSans-64" x="187.785156"/>
      <use xlink:href="#DejaVuSans-73" x="251.261719"/>
     </g>
    </g>
   </g>
   <g id="line2d_22">
    <path d="M 61.710852 154.584801 
L 61.710852 180.379535 
" clip-path="url(#p4b9f1b9727)" style="fill: none; stroke: #474747; stroke-width: 1.5; stroke-linecap: square"/>
   </g>
   <g id="line2d_23">
    <path d="M 61.710852 113.262573 
L 61.710852 97.42697 
" clip-path="url(#p4b9f1b9727)" style="fill: none; stroke: #474747; stroke-width: 1.5; stroke-linecap: square"/>
   </g>
   <g id="line2d_24">
    <path d="M 55.217761 180.379535 
L 68.203943 180.379535 
" clip-path="url(#p4b9f1b9727)" style="fill: none; stroke: #474747; stroke-width: 1.5; stroke-linecap: square"/>
   </g>
   <g id="line2d_25">
    <path d="M 55.217761 97.42697 
L 68.203943 97.42697 
" clip-path="url(#p4b9f1b9727)" style="fill: none; stroke: #474747; stroke-width: 1.5; stroke-linecap: square"/>
   </g>
   <g id="line2d_26"/>
   <g id="line2d_27">
    <path d="M 94.176307 151.101898 
L 94.176307 181.880004 
" clip-path="url(#p4b9f1b9727)" style="fill: none; stroke: #474747; stroke-width: 1.5; stroke-linecap: square"/>
   </g>
   <g id="line2d_28">
    <path d="M 94.176307 121.248432 
L 94.176307 100.996303 
" clip-path="url(#p4b9f1b9727)" style="fill: none; stroke: #474747; stroke-width: 1.5; stroke-linecap: square"/>
   </g>
   <g id="line2d_29">
    <path d="M 87.683216 181.880004 
L 100.669398 181.880004 
" clip-path="url(#p4b9f1b9727)" style="fill: none; stroke: #474747; stroke-width: 1.5; stroke-linecap: square"/>
   </g>
   <g id="line2d_30">
    <path d="M 87.683216 100.996303 
L 100.669398 100.996303 
" clip-path="url(#p4b9f1b9727)" style="fill: none; stroke: #474747; stroke-width: 1.5; stroke-linecap: square"/>
   </g>
   <g id="line2d_31"/>
   <g id="line2d_32">
    <path d="M 126.641761 158.792283 
L 126.641761 198.12738 
" clip-path="url(#p4b9f1b9727)" style="fill: none; stroke: #474747; stroke-width: 1.5; stroke-linecap: square"/>
   </g>
   <g id="line2d_33">
    <path d="M 126.641761 127.988784 
L 126.641761 104.685034 
" clip-path="url(#p4b9f1b9727)" style="fill: none; stroke: #474747; stroke-width: 1.5; stroke-linecap: square"/>
   </g>
   <g id="line2d_34">
    <path d="M 120.14867 198.12738 
L 133.134852 198.12738 
" clip-path="url(#p4b9f1b9727)" style="fill: none; stroke: #474747; stroke-width: 1.5; stroke-linecap: square"/>
   </g>
   <g id="line2d_35">
    <path d="M 120.14867 104.685034 
L 133.134852 104.685034 
" clip-path="url(#p4b9f1b9727)" style="fill: none; stroke: #474747; stroke-width: 1.5; stroke-linecap: square"/>
   </g>
   <g id="line2d_36"/>
   <g id="line2d_37">
    <path d="M 159.107216 148.839608 
L 159.107216 183.401169 
" clip-path="url(#p4b9f1b9727)" style="fill: none; stroke: #474747; stroke-width: 1.5; stroke-linecap: square"/>
   </g>
   <g id="line2d_38">
    <path d="M 159.107216 117.604161 
L 159.107216 97.42697 
" clip-path="url(#p4b9f1b9727)" style="fill: none; stroke: #474747; stroke-width: 1.5; stroke-linecap: square"/>
   </g>
   <g id="line2d_39">
    <path d="M 152.614125 183.401169 
L 165.600307 183.401169 
" clip-path="url(#p4b9f1b9727)" style="fill: none; stroke: #474747; stroke-width: 1.5; stroke-linecap: square"/>
   </g>
   <g id="line2d_40">
    <path d="M 152.614125 97.42697 
L 165.600307 97.42697 
" clip-path="url(#p4b9f1b9727)" style="fill: none; stroke: #474747; stroke-width: 1.5; stroke-linecap: square"/>
   </g>
   <g id="line2d_41"/>
   <g id="line2d_42">
    <path d="M 191.57267 146.897472 
L 191.57267 165.09587 
" clip-path="url(#p4b9f1b9727)" style="fill: none; stroke: #474747; stroke-width: 1.5; stroke-linecap: square"/>
   </g>
   <g id="line2d_43">
    <path d="M 191.57267 122.343603 
L 191.57267 110.856309 
" clip-path="url(#p4b9f1b9727)" style="fill: none; stroke: #474747; stroke-width: 1.5; stroke-linecap: square"/>
   </g>
   <g id="line2d_44">
    <path d="M 185.07958 165.09587 
L 198.065761 165.09587 
" clip-path="url(#p4b9f1b9727)" style="fill: none; stroke: #474747; stroke-width: 1.5; stroke-linecap: square"/>
   </g>
   <g id="line2d_45">
    <path d="M 185.07958 110.856309 
L 198.065761 110.856309 
" clip-path="url(#p4b9f1b9727)" style="fill: none; stroke: #474747; stroke-width: 1.5; stroke-linecap: square"/>
   </g>
   <g id="line2d_46"/>
   <g id="line2d_47">
    <path d="M 224.038125 156.368388 
L 224.038125 199.891941 
" clip-path="url(#p4b9f1b9727)" style="fill: none; stroke: #474747; stroke-width: 1.5; stroke-linecap: square"/>
   </g>
   <g id="line2d_48">
    <path d="M 224.038125 121.248432 
L 224.038125 105.43782 
" clip-path="url(#p4b9f1b9727)" style="fill: none; stroke: #474747; stroke-width: 1.5; stroke-linecap: square"/>
   </g>
   <g id="line2d_49">
    <path d="M 217.545034 199.891941 
L 230.531216 199.891941 
" clip-path="url(#p4b9f1b9727)" style="fill: none; stroke: #474747; stroke-width: 1.5; stroke-linecap: square"/>
   </g>
   <g id="line2d_50">
    <path d="M 217.545034 105.43782 
L 230.531216 105.43782 
" clip-path="url(#p4b9f1b9727)" style="fill: none; stroke: #474747; stroke-width: 1.5; stroke-linecap: square"/>
   </g>
   <g id="line2d_51"/>
   <g id="line2d_52">
    <path d="M 256.50358 170.752636 
L 256.50358 211.116818 
" clip-path="url(#p4b9f1b9727)" style="fill: none; stroke: #474747; stroke-width: 1.5; stroke-linecap: square"/>
   </g>
   <g id="line2d_53">
    <path d="M 256.50358 134.183396 
L 256.50358 109.280814 
" clip-path="url(#p4b9f1b9727)" style="fill: none; stroke: #474747; stroke-width: 1.5; stroke-linecap: square"/>
   </g>
   <g id="line2d_54">
    <path d="M 250.010489 211.116818 
L 262.99667 211.116818 
" clip-path="url(#p4b9f1b9727)" style="fill: none; stroke: #474747; stroke-width: 1.5; stroke-linecap: square"/>
   </g>
   <g id="line2d_55">
    <path d="M 250.010489 109.280814 
L 262.99667 109.280814 
" clip-path="url(#p4b9f1b9727)" style="fill: none; stroke: #474747; stroke-width: 1.5; stroke-linecap: square"/>
   </g>
   <g id="line2d_56"/>
   <g id="line2d_57">
    <path d="M 288.969034 176.355505 
L 288.969034 232.810572 
" clip-path="url(#p4b9f1b9727)" style="fill: none; stroke: #474747; stroke-width: 1.5; stroke-linecap: square"/>
   </g>
   <g id="line2d_58">
    <path d="M 288.969034 135.415619 
L 288.969034 112.454637 
" clip-path="url(#p4b9f1b9727)" style="fill: none; stroke: #474747; stroke-width: 1.5; stroke-linecap: square"/>
   </g>
   <g id="line2d_59">
    <path d="M 282.475943 232.810572 
L 295.462125 232.810572 
" clip-path="url(#p4b9f1b9727)" style="fill: none; stroke: #474747; stroke-width: 1.5; stroke-linecap: square"/>
   </g>
   <g id="line2d_60">
    <path d="M 282.475943 112.454637 
L 295.462125 112.454637 
" clip-path="url(#p4b9f1b9727)" style="fill: none; stroke: #474747; stroke-width: 1.5; stroke-linecap: square"/>
   </g>
   <g id="line2d_61"/>
   <g id="line2d_62">
    <path d="M 321.434489 183.784762 
L 321.434489 240.248182 
" clip-path="url(#p4b9f1b9727)" style="fill: none; stroke: #474747; stroke-width: 1.5; stroke-linecap: square"/>
   </g>
   <g id="line2d_63">
    <path d="M 321.434489 145.259579 
L 321.434489 121.685196 
" clip-path="url(#p4b9f1b9727)" style="fill: none; stroke: #474747; stroke-width: 1.5; stroke-linecap: square"/>
   </g>
   <g id="line2d_64">
    <path d="M 314.941398 240.248182 
L 327.92758 240.248182 
" clip-path="url(#p4b9f1b9727)" style="fill: none; stroke: #474747; stroke-width: 1.5; stroke-linecap: square"/>
   </g>
   <g id="line2d_65">
    <path d="M 314.941398 121.685196 
L 327.92758 121.685196 
" clip-path="url(#p4b9f1b9727)" style="fill: none; stroke: #474747; stroke-width: 1.5; stroke-linecap: square"/>
   </g>
   <g id="line2d_66"/>
   <g id="line2d_67">
    <path d="M 353.899943 194.680763 
L 353.899943 248.223904 
" clip-path="url(#p4b9f1b9727)" style="fill: none; stroke: #474747; stroke-width: 1.5; stroke-linecap: square"/>
   </g>
   <g id="line2d_68">
    <path d="M 353.899943 153.996625 
L 353.899943 137.66892 
" clip-path="url(#p4b9f1b9727)" style="fill: none; stroke: #474747; stroke-width: 1.5; stroke-linecap: square"/>
   </g>
   <g id="line2d_69">
    <path d="M 347.406852 248.223904 
L 360.393034 248.223904 
" clip-path="url(#p4b9f1b9727)" style="fill: none; stroke: #474747; stroke-width: 1.5; stroke-linecap: square"/>
   </g>
   <g id="line2d_70">
    <path d="M 347.406852 137.66892 
L 360.393034 137.66892 
" clip-path="url(#p4b9f1b9727)" style="fill: none; stroke: #474747; stroke-width: 1.5; stroke-linecap: square"/>
   </g>
   <g id="line2d_71"/>
   <g id="line2d_72">
    <path d="M 386.365398 212.105907 
L 386.365398 256.821718 
" clip-path="url(#p4b9f1b9727)" style="fill: none; stroke: #474747; stroke-width: 1.5; stroke-linecap: square"/>
   </g>
   <g id="line2d_73">
    <path d="M 386.365398 171.781721 
L 386.365398 156.368388 
" clip-path="url(#p4b9f1b9727)" style="fill: none; stroke: #474747; stroke-width: 1.5; stroke-linecap: square"/>
   </g>
   <g id="line2d_74">
    <path d="M 379.872307 256.821718 
L 392.858489 256.821718 
" clip-path="url(#p4b9f1b9727)" style="fill: none; stroke: #474747; stroke-width: 1.5; stroke-linecap: square"/>
   </g>
   <g id="line2d_75">
    <path d="M 379.872307 156.368388 
L 392.858489 156.368388 
" clip-path="url(#p4b9f1b9727)" style="fill: none; stroke: #474747; stroke-width: 1.5; stroke-linecap: square"/>
   </g>
   <g id="line2d_76"/>
   <g id="line2d_77">
    <path d="M 48.72467 122.563948 
L 74.697034 122.563948 
" clip-path="url(#p4b9f1b9727)" style="fill: none; stroke: #474747; stroke-width: 1.5; stroke-linecap: square"/>
   </g>
   <g id="line2d_78">
    <path d="M 81.190125 131.759502 
L 107.162489 131.759502 
" clip-path="url(#p4b9f1b9727)" style="fill: none; stroke: #474747; stroke-width: 1.5; stroke-linecap: square"/>
   </g>
   <g id="line2d_79">
    <path d="M 113.65558 141.79212 
L 139.627943 141.79212 
" clip-path="url(#p4b9f1b9727)" style="fill: none; stroke: #474747; stroke-width: 1.5; stroke-linecap: square"/>
   </g>
   <g id="line2d_80">
    <path d="M 146.121034 127.06591 
L 172.093398 127.06591 
" clip-path="url(#p4b9f1b9727)" style="fill: none; stroke: #474747; stroke-width: 1.5; stroke-linecap: square"/>
   </g>
   <g id="line2d_81">
    <path d="M 178.586489 134.183396 
L 204.558852 134.183396 
" clip-path="url(#p4b9f1b9727)" style="fill: none; stroke: #474747; stroke-width: 1.5; stroke-linecap: square"/>
   </g>
   <g id="line2d_82">
    <path d="M 211.051943 143.37895 
L 237.024307 143.37895 
" clip-path="url(#p4b9f1b9727)" style="fill: none; stroke: #474747; stroke-width: 1.5; stroke-linecap: square"/>
   </g>
   <g id="line2d_83">
    <path d="M 243.517398 147.725631 
L 269.489761 147.725631 
" clip-path="url(#p4b9f1b9727)" style="fill: none; stroke: #474747; stroke-width: 1.5; stroke-linecap: square"/>
   </g>
   <g id="line2d_84">
    <path d="M 275.982852 155.176131 
L 301.955216 155.176131 
" clip-path="url(#p4b9f1b9727)" style="fill: none; stroke: #474747; stroke-width: 1.5; stroke-linecap: square"/>
   </g>
   <g id="line2d_85">
    <path d="M 308.448307 163.805999 
L 334.42067 163.805999 
" clip-path="url(#p4b9f1b9727)" style="fill: none; stroke: #474747; stroke-width: 1.5; stroke-linecap: square"/>
   </g>
   <g id="line2d_86">
    <path d="M 340.913761 171.094599 
L 366.886125 171.094599 
" clip-path="url(#p4b9f1b9727)" style="fill: none; stroke: #474747; stroke-width: 1.5; stroke-linecap: square"/>
   </g>
   <g id="line2d_87">
    <path d="M 373.379216 188.896821 
L 399.35158 188.896821 
" clip-path="url(#p4b9f1b9727)" style="fill: none; stroke: #474747; stroke-width: 1.5; stroke-linecap: square"/>
   </g>
   <g id="patch_14">
    <path d="M 45.478125 288.430125 
L 45.478125 22.318125 
" style="fill: none; stroke: #000000; stroke-width: 0.8; stroke-linejoin: miter; stroke-linecap: square"/>
   </g>
   <g id="patch_15">
    <path d="M 402.598125 288.430125 
L 402.598125 22.318125 
" style="fill: none; stroke: #000000; stroke-width: 0.8; stroke-linejoin: miter; stroke-linecap: square"/>
   </g>
   <g id="patch_16">
    <path d="M 45.478125 288.430125 
L 402.598125 288.430125 
" style="fill: none; stroke: #000000; stroke-width: 0.8; stroke-linejoin: miter; stroke-linecap: square"/>
   </g>
   <g id="patch_17">
    <path d="M 45.478125 22.318125 
L 402.598125 22.318125 
" style="fill: none; stroke: #000000; stroke-width: 0.8; stroke-linejoin: miter; stroke-linecap: square"/>
   </g>
   <g id="PathCollection_1">
    <defs>
     <path id="m98647e3e69" d="M 0 1.25 
C 0.331504 1.25 0.649475 1.118292 0.883883 0.883883 
C 1.118292 0.649475 1.25 0.331504 1.25 0 
C 1.25 -0.331504 1.118292 -0.649475 0.883883 -0.883883 
C 0.649475 -1.118292 0.331504 -1.25 0 -1.25 
C -0.331504 -1.25 -0.649475 -1.118292 -0.883883 -0.883883 
C -1.118292 -0.649475 -1.25 -0.331504 -1.25 0 
C -1.25 0.331504 -1.118292 0.649475 -0.883883 0.883883 
C -0.649475 1.118292 -0.331504 1.25 0 1.25 
z
"/>
    </defs>
    <g clip-path="url(#p4b9f1b9727)">
     <use xlink:href="#m98647e3e69" x="61.548034" y="97.42697"/>
     <use xlink:href="#m98647e3e69" x="63.194461" y="153.996625"/>
     <use xlink:href="#m98647e3e69" x="59.242557" y="114.896422"/>
     <use xlink:href="#m98647e3e69" x="65.228007" y="180.379535"/>
     <use xlink:href="#m98647e3e69" x="58.694281" y="115.722514"/>
     <use xlink:href="#m98647e3e69" x="61.508931" y="135.663724"/>
     <use xlink:href="#m98647e3e69" x="59.777878" y="111.652577"/>
     <use xlink:href="#m98647e3e69" x="66.715069" y="155.176131"/>
     <use xlink:href="#m98647e3e69" x="59.541955" y="78.733947"/>
     <use xlink:href="#m98647e3e69" x="62.225425" y="221.43113"/>
     <use xlink:href="#m98647e3e69" x="63.300763" y="122.563948"/>
    </g>
   </g>
   <g id="PathCollection_2">
    <g clip-path="url(#p4b9f1b9727)">
     <use xlink:href="#m98647e3e69" x="97.035248" y="105.43782"/>
     <use xlink:href="#m98647e3e69" x="96.552717" y="133.694337"/>
     <use xlink:href="#m98647e3e69" x="94.439903" y="129.858028"/>
     <use xlink:href="#m98647e3e69" x="93.071728" y="142.847466"/>
     <use xlink:href="#m98647e3e69" x="96.147109" y="119.948424"/>
     <use xlink:href="#m98647e3e69" x="97.524845" y="80.527202"/>
     <use xlink:href="#m98647e3e69" x="94.71782" y="181.880004"/>
     <use xlink:href="#m98647e3e69" x="96.20564" y="150.53196"/>
     <use xlink:href="#m98647e3e69" x="96.575697" y="121.685196"/>
     <use xlink:href="#m98647e3e69" x="92.706994" y="156.368388"/>
     <use xlink:href="#m98647e3e69" x="96.328338" y="127.988784"/>
     <use xlink:href="#m98647e3e69" x="91.367364" y="100.996303"/>
     <use xlink:href="#m98647e3e69" x="96.475157" y="144.988946"/>
     <use xlink:href="#m98647e3e69" x="94.662539" y="128.919445"/>
     <use xlink:href="#m98647e3e69" x="99.761806" y="34.414125"/>
     <use xlink:href="#m98647e3e69" x="93.50073" y="237.712835"/>
     <use xlink:href="#m98647e3e69" x="93.136416" y="123.449758"/>
     <use xlink:href="#m98647e3e69" x="97.538419" y="167.721774"/>
     <use xlink:href="#m98647e3e69" x="97.769884" y="139.711252"/>
     <use xlink:href="#m98647e3e69" x="93.617181" y="152.8296"/>
    </g>
   </g>
   <g id="PathCollection_3">
    <g clip-path="url(#p4b9f1b9727)">
     <use xlink:href="#m98647e3e69" x="127.712022" y="131.759502"/>
     <use xlink:href="#m98647e3e69" x="131.282779" y="117.393497"/>
     <use xlink:href="#m98647e3e69" x="122.849063" y="104.685034"/>
     <use xlink:href="#m98647e3e69" x="126.123054" y="169.058551"/>
     <use xlink:href="#m98647e3e69" x="123.504162" y="149.400845"/>
     <use xlink:href="#m98647e3e69" x="122.599645" y="161.270651"/>
     <use xlink:href="#m98647e3e69" x="129.275963" y="158.792283"/>
     <use xlink:href="#m98647e3e69" x="127.397314" y="138.685358"/>
     <use xlink:href="#m98647e3e69" x="132.157914" y="146.075484"/>
     <use xlink:href="#m98647e3e69" x="132.951859" y="160.024505"/>
     <use xlink:href="#m98647e3e69" x="132.665586" y="114.896422"/>
     <use xlink:href="#m98647e3e69" x="126.498506" y="122.563948"/>
     <use xlink:href="#m98647e3e69" x="132.424014" y="114.896422"/>
     <use xlink:href="#m98647e3e69" x="121.288462" y="103.194704"/>
     <use xlink:href="#m98647e3e69" x="122.900951" y="139.711252"/>
     <use xlink:href="#m98647e3e69" x="120.515963" y="129.858028"/>
     <use xlink:href="#m98647e3e69" x="127.906087" y="140.746778"/>
     <use xlink:href="#m98647e3e69" x="129.926745" y="152.8296"/>
     <use xlink:href="#m98647e3e69" x="126.343652" y="142.847466"/>
     <use xlink:href="#m98647e3e69" x="128.882417" y="198.12738"/>
     <use xlink:href="#m98647e3e69" x="132.296875" y="143.913008"/>
     <use xlink:href="#m98647e3e69" x="131.55642" y="158.792283"/>
     <use xlink:href="#m98647e3e69" x="127.896347" y="137.66892"/>
     <use xlink:href="#m98647e3e69" x="123.227229" y="178.899207"/>
    </g>
   </g>
   <g id="PathCollection_4">
    <g clip-path="url(#p4b9f1b9727)">
     <use xlink:href="#m98647e3e69" x="159.231382" y="119.090188"/>
     <use xlink:href="#m98647e3e69" x="157.941962" y="115.722514"/>
     <use xlink:href="#m98647e3e69" x="161.516891" y="70.180611"/>
     <use xlink:href="#m98647e3e69" x="158.68994" y="157.573676"/>
     <use xlink:href="#m98647e3e69" x="164.8881" y="127.06591"/>
     <use xlink:href="#m98647e3e69" x="162.813895" y="165.09587"/>
     <use xlink:href="#m98647e3e69" x="163.667599" y="119.948424"/>
     <use xlink:href="#m98647e3e69" x="156.582652" y="127.06591"/>
     <use xlink:href="#m98647e3e69" x="164.648242" y="148.281213"/>
     <use xlink:href="#m98647e3e69" x="165.413451" y="120.813391"/>
     <use xlink:href="#m98647e3e69" x="157.315487" y="108.501427"/>
     <use xlink:href="#m98647e3e69" x="153.687294" y="79.328465"/>
     <use xlink:href="#m98647e3e69" x="161.853981" y="127.988784"/>
     <use xlink:href="#m98647e3e69" x="157.226552" y="102.457024"/>
     <use xlink:href="#m98647e3e69" x="160.734888" y="139.711252"/>
     <use xlink:href="#m98647e3e69" x="165.517912" y="97.42697"/>
     <use xlink:href="#m98647e3e69" x="155.373175" y="132.722676"/>
     <use xlink:href="#m98647e3e69" x="153.681876" y="121.685196"/>
     <use xlink:href="#m98647e3e69" x="164.363482" y="170.411731"/>
     <use xlink:href="#m98647e3e69" x="160.084935" y="158.792283"/>
     <use xlink:href="#m98647e3e69" x="153.812587" y="118.238579"/>
     <use xlink:href="#m98647e3e69" x="161.913488" y="150.53196"/>
     <use xlink:href="#m98647e3e69" x="152.849016" y="128.919445"/>
     <use xlink:href="#m98647e3e69" x="160.475319" y="183.401169"/>
    </g>
   </g>
   <g id="PathCollection_5">
    <g clip-path="url(#p4b9f1b9727)">
     <use xlink:href="#m98647e3e69" x="193.44708" y="119.090188"/>
     <use xlink:href="#m98647e3e69" x="195.13485" y="84.828468"/>
     <use xlink:href="#m98647e3e69" x="189.89698" y="96.030968"/>
     <use xlink:href="#m98647e3e69" x="190.941565" y="134.674634"/>
     <use xlink:href="#m98647e3e69" x="192.298349" y="123.449758"/>
     <use xlink:href="#m98647e3e69" x="194.719691" y="130.804667"/>
     <use xlink:href="#m98647e3e69" x="188.497637" y="130.804667"/>
     <use xlink:href="#m98647e3e69" x="186.432268" y="110.856309"/>
     <use xlink:href="#m98647e3e69" x="188.632075" y="137.66892"/>
     <use xlink:href="#m98647e3e69" x="185.328097" y="127.06591"/>
     <use xlink:href="#m98647e3e69" x="190.209421" y="114.076472"/>
     <use xlink:href="#m98647e3e69" x="186.184396" y="183.401169"/>
     <use xlink:href="#m98647e3e69" x="192.994708" y="124.342741"/>
     <use xlink:href="#m98647e3e69" x="188.056909" y="99.554678"/>
     <use xlink:href="#m98647e3e69" x="194.801973" y="165.09587"/>
     <use xlink:href="#m98647e3e69" x="195.843741" y="133.694337"/>
     <use xlink:href="#m98647e3e69" x="194.376061" y="142.847466"/>
     <use xlink:href="#m98647e3e69" x="187.579174" y="152.8296"/>
     <use xlink:href="#m98647e3e69" x="187.417988" y="183.401169"/>
     <use xlink:href="#m98647e3e69" x="196.874825" y="149.400845"/>
     <use xlink:href="#m98647e3e69" x="192.539847" y="134.674634"/>
     <use xlink:href="#m98647e3e69" x="192.357341" y="162.531039"/>
     <use xlink:href="#m98647e3e69" x="196.943807" y="134.674634"/>
     <use xlink:href="#m98647e3e69" x="197.585897" y="146.075484"/>
    </g>
   </g>
   <g id="PathCollection_6">
    <g clip-path="url(#p4b9f1b9727)">
     <use xlink:href="#m98647e3e69" x="229.91398" y="110.065748"/>
     <use xlink:href="#m98647e3e69" x="226.126151" y="105.43782"/>
     <use xlink:href="#m98647e3e69" x="222.629851" y="107.72751"/>
     <use xlink:href="#m98647e3e69" x="229.627497" y="129.858028"/>
     <use xlink:href="#m98647e3e69" x="229.006125" y="126.150695"/>
     <use xlink:href="#m98647e3e69" x="219.739096" y="139.711252"/>
     <use xlink:href="#m98647e3e69" x="220.466945" y="105.43782"/>
     <use xlink:href="#m98647e3e69" x="221.48133" y="114.896422"/>
     <use xlink:href="#m98647e3e69" x="228.657446" y="146.075484"/>
     <use xlink:href="#m98647e3e69" x="229.950703" y="129.858028"/>
     <use xlink:href="#m98647e3e69" x="218.974304" y="113.262573"/>
     <use xlink:href="#m98647e3e69" x="221.741331" y="199.891941"/>
     <use xlink:href="#m98647e3e69" x="228.987251" y="140.746778"/>
     <use xlink:href="#m98647e3e69" x="219.229071" y="123.449758"/>
     <use xlink:href="#m98647e3e69" x="229.503764" y="194.680763"/>
     <use xlink:href="#m98647e3e69" x="225.263448" y="169.058551"/>
     <use xlink:href="#m98647e3e69" x="228.292966" y="167.721774"/>
     <use xlink:href="#m98647e3e69" x="221.410494" y="146.075484"/>
     <use xlink:href="#m98647e3e69" x="222.559321" y="174.573839"/>
     <use xlink:href="#m98647e3e69" x="229.616918" y="150.53196"/>
     <use xlink:href="#m98647e3e69" x="222.436244" y="149.400845"/>
     <use xlink:href="#m98647e3e69" x="222.987552" y="175.996862"/>
     <use xlink:href="#m98647e3e69" x="222.467001" y="149.400845"/>
     <use xlink:href="#m98647e3e69" x="225.582872" y="152.8296"/>
    </g>
   </g>
   <g id="PathCollection_7">
    <g clip-path="url(#p4b9f1b9727)">
     <use xlink:href="#m98647e3e69" x="261.385147" y="109.280814"/>
     <use xlink:href="#m98647e3e69" x="258.048406" y="142.847466"/>
     <use xlink:href="#m98647e3e69" x="256.83094" y="100.273135"/>
     <use xlink:href="#m98647e3e69" x="252.908102" y="139.711252"/>
     <use xlink:href="#m98647e3e69" x="262.623606" y="147.172834"/>
     <use xlink:href="#m98647e3e69" x="258.578121" y="127.06591"/>
     <use xlink:href="#m98647e3e69" x="261.055563" y="123.449758"/>
     <use xlink:href="#m98647e3e69" x="257.661294" y="118.238579"/>
     <use xlink:href="#m98647e3e69" x="252.504082" y="142.847466"/>
     <use xlink:href="#m98647e3e69" x="251.044123" y="149.400845"/>
     <use xlink:href="#m98647e3e69" x="262.1981" y="125.243013"/>
     <use xlink:href="#m98647e3e69" x="257.916029" y="188.094761"/>
     <use xlink:href="#m98647e3e69" x="256.396393" y="161.270651"/>
     <use xlink:href="#m98647e3e69" x="257.790041" y="157.573676"/>
     <use xlink:href="#m98647e3e69" x="260.713515" y="211.116818"/>
     <use xlink:href="#m98647e3e69" x="256.316721" y="183.401169"/>
     <use xlink:href="#m98647e3e69" x="256.731514" y="175.996862"/>
     <use xlink:href="#m98647e3e69" x="253.09726" y="169.058551"/>
     <use xlink:href="#m98647e3e69" x="259.784026" y="177.438487"/>
     <use xlink:href="#m98647e3e69" x="256.51617" y="136.661765"/>
     <use xlink:href="#m98647e3e69" x="254.531257" y="155.176131"/>
     <use xlink:href="#m98647e3e69" x="253.607937" y="191.338605"/>
     <use xlink:href="#m98647e3e69" x="258.038691" y="147.172834"/>
     <use xlink:href="#m98647e3e69" x="262.727551" y="148.281213"/>
    </g>
   </g>
   <g id="PathCollection_8">
    <g clip-path="url(#p4b9f1b9727)">
     <use xlink:href="#m98647e3e69" x="292.904697" y="112.454637"/>
     <use xlink:href="#m98647e3e69" x="289.673617" y="162.531039"/>
     <use xlink:href="#m98647e3e69" x="287.370777" y="123.449758"/>
     <use xlink:href="#m98647e3e69" x="286.852924" y="126.150695"/>
     <use xlink:href="#m98647e3e69" x="287.960115" y="146.075484"/>
     <use xlink:href="#m98647e3e69" x="284.326759" y="127.06591"/>
     <use xlink:href="#m98647e3e69" x="282.737273" y="141.79212"/>
     <use xlink:href="#m98647e3e69" x="284.025057" y="128.919445"/>
     <use xlink:href="#m98647e3e69" x="290.582435" y="137.66892"/>
     <use xlink:href="#m98647e3e69" x="290.209195" y="147.172834"/>
     <use xlink:href="#m98647e3e69" x="289.310334" y="127.988784"/>
     <use xlink:href="#m98647e3e69" x="294.719738" y="175.996862"/>
     <use xlink:href="#m98647e3e69" x="293.698957" y="158.792283"/>
     <use xlink:href="#m98647e3e69" x="292.765412" y="173.168944"/>
     <use xlink:href="#m98647e3e69" x="291.189608" y="232.810572"/>
     <use xlink:href="#m98647e3e69" x="291.58174" y="228.11698"/>
     <use xlink:href="#m98647e3e69" x="292.379539" y="177.438487"/>
     <use xlink:href="#m98647e3e69" x="293.993923" y="196.390607"/>
     <use xlink:href="#m98647e3e69" x="282.52175" y="181.880004"/>
     <use xlink:href="#m98647e3e69" x="289.305357" y="166.401007"/>
     <use xlink:href="#m98647e3e69" x="282.949099" y="162.531039"/>
     <use xlink:href="#m98647e3e69" x="294.803469" y="188.094761"/>
     <use xlink:href="#m98647e3e69" x="284.952661" y="142.847466"/>
     <use xlink:href="#m98647e3e69" x="288.9462" y="151.674797"/>
    </g>
   </g>
   <g id="PathCollection_9">
    <g clip-path="url(#p4b9f1b9727)">
     <use xlink:href="#m98647e3e69" x="327.722011" y="135.663724"/>
     <use xlink:href="#m98647e3e69" x="319.632377" y="166.401007"/>
     <use xlink:href="#m98647e3e69" x="320.333504" y="130.804667"/>
     <use xlink:href="#m98647e3e69" x="322.572002" y="153.996625"/>
     <use xlink:href="#m98647e3e69" x="320.978081" y="157.573676"/>
     <use xlink:href="#m98647e3e69" x="326.531981" y="121.685196"/>
     <use xlink:href="#m98647e3e69" x="326.205052" y="147.172834"/>
     <use xlink:href="#m98647e3e69" x="324.509667" y="127.06591"/>
     <use xlink:href="#m98647e3e69" x="316.019287" y="130.804667"/>
     <use xlink:href="#m98647e3e69" x="320.401716" y="161.270651"/>
     <use xlink:href="#m98647e3e69" x="315.524569" y="139.711252"/>
     <use xlink:href="#m98647e3e69" x="322.086208" y="174.573839"/>
     <use xlink:href="#m98647e3e69" x="322.879032" y="175.996862"/>
     <use xlink:href="#m98647e3e69" x="323.277876" y="199.891941"/>
     <use xlink:href="#m98647e3e69" x="315.955364" y="240.248182"/>
     <use xlink:href="#m98647e3e69" x="322.613224" y="228.11698"/>
     <use xlink:href="#m98647e3e69" x="324.686587" y="191.338605"/>
     <use xlink:href="#m98647e3e69" x="320.307365" y="189.704757"/>
     <use xlink:href="#m98647e3e69" x="324.985252" y="196.390607"/>
     <use xlink:href="#m98647e3e69" x="316.811436" y="175.996862"/>
     <use xlink:href="#m98647e3e69" x="322.943282" y="151.674797"/>
     <use xlink:href="#m98647e3e69" x="326.971591" y="181.880004"/>
     <use xlink:href="#m98647e3e69" x="322.305828" y="149.400845"/>
     <use xlink:href="#m98647e3e69" x="322.475792" y="170.411731"/>
    </g>
   </g>
   <g id="PathCollection_10">
    <g clip-path="url(#p4b9f1b9727)">
     <use xlink:href="#m98647e3e69" x="357.05567" y="156.368388"/>
     <use xlink:href="#m98647e3e69" x="349.182313" y="189.704757"/>
     <use xlink:href="#m98647e3e69" x="349.815257" y="138.685358"/>
     <use xlink:href="#m98647e3e69" x="348.294499" y="165.09587"/>
     <use xlink:href="#m98647e3e69" x="355.056723" y="153.996625"/>
     <use xlink:href="#m98647e3e69" x="352.755996" y="140.746778"/>
     <use xlink:href="#m98647e3e69" x="350.573124" y="147.172834"/>
     <use xlink:href="#m98647e3e69" x="359.187123" y="137.66892"/>
     <use xlink:href="#m98647e3e69" x="348.202007" y="155.176131"/>
     <use xlink:href="#m98647e3e69" x="354.233018" y="188.094761"/>
     <use xlink:href="#m98647e3e69" x="353.311579" y="153.996625"/>
     <use xlink:href="#m98647e3e69" x="358.483402" y="173.168944"/>
     <use xlink:href="#m98647e3e69" x="350.111474" y="209.16486"/>
     <use xlink:href="#m98647e3e69" x="348.490158" y="201.685197"/>
     <use xlink:href="#m98647e3e69" x="359.685714" y="228.11698"/>
     <use xlink:href="#m98647e3e69" x="350.493122" y="248.223904"/>
     <use xlink:href="#m98647e3e69" x="349.526721" y="181.880004"/>
     <use xlink:href="#m98647e3e69" x="357.221999" y="194.680763"/>
     <use xlink:href="#m98647e3e69" x="359.937414" y="207.24685"/>
     <use xlink:href="#m98647e3e69" x="355.658855" y="192.997024"/>
     <use xlink:href="#m98647e3e69" x="360.373542" y="169.058551"/>
     <use xlink:href="#m98647e3e69" x="349.804664" y="194.680763"/>
     <use xlink:href="#m98647e3e69" x="354.795341" y="148.281213"/>
     <use xlink:href="#m98647e3e69" x="347.513779" y="165.09587"/>
    </g>
   </g>
   <g id="PathCollection_11">
    <g clip-path="url(#p4b9f1b9727)">
     <use xlink:href="#m98647e3e69" x="380.204951" y="169.058551"/>
     <use xlink:href="#m98647e3e69" x="385.051163" y="196.390607"/>
     <use xlink:href="#m98647e3e69" x="379.95008" y="167.721774"/>
     <use xlink:href="#m98647e3e69" x="392.728105" y="169.058551"/>
     <use xlink:href="#m98647e3e69" x="382.407827" y="171.781721"/>
     <use xlink:href="#m98647e3e69" x="380.366531" y="156.368388"/>
     <use xlink:href="#m98647e3e69" x="383.750182" y="180.379535"/>
     <use xlink:href="#m98647e3e69" x="389.090197" y="160.024505"/>
     <use xlink:href="#m98647e3e69" x="386.195585" y="175.996862"/>
     <use xlink:href="#m98647e3e69" x="381.69232" y="207.24685"/>
     <use xlink:href="#m98647e3e69" x="386.697795" y="171.781721"/>
     <use xlink:href="#m98647e3e69" x="386.6535" y="192.997024"/>
     <use xlink:href="#m98647e3e69" x="387.087894" y="225.843028"/>
     <use xlink:href="#m98647e3e69" x="384.245915" y="225.843028"/>
     <use xlink:href="#m98647e3e69" x="390.671311" y="256.821718"/>
     <use xlink:href="#m98647e3e69" x="391.918313" y="276.334125"/>
     <use xlink:href="#m98647e3e69" x="391.495" y="215.127542"/>
     <use xlink:href="#m98647e3e69" x="392.41695" y="211.116818"/>
     <use xlink:href="#m98647e3e69" x="386.034149" y="221.43113"/>
     <use xlink:href="#m98647e3e69" x="385.432219" y="203.508094"/>
     <use xlink:href="#m98647e3e69" x="380.414626" y="188.094761"/>
     <use xlink:href="#m98647e3e69" x="388.028015" y="188.094761"/>
     <use xlink:href="#m98647e3e69" x="387.188845" y="183.401169"/>
     <use xlink:href="#m98647e3e69" x="385.671771" y="189.704757"/>
    </g>
   </g>
   <g id="text_15">
    <!-- Ext_50 Log Normalised Reads per length of VCG -->
    <g transform="translate(79.617188 16.318125) scale(0.12 -0.12)">
     <defs>
      <path id="DejaVuSans-45" d="M 628 4666 
L 3578 4666 
L 3578 4134 
L 1259 4134 
L 1259 2753 
L 3481 2753 
L 3481 2222 
L 1259 2222 
L 1259 531 
L 3634 531 
L 3634 0 
L 628 0 
L 628 4666 
z
" transform="scale(0.015625)"/>
      <path id="DejaVuSans-78" d="M 3513 3500 
L 2247 1797 
L 3578 0 
L 2900 0 
L 1881 1375 
L 863 0 
L 184 0 
L 1544 1831 
L 300 3500 
L 978 3500 
L 1906 2253 
L 2834 3500 
L 3513 3500 
z
" transform="scale(0.015625)"/>
      <path id="DejaVuSans-74" d="M 1172 4494 
L 1172 3500 
L 2356 3500 
L 2356 3053 
L 1172 3053 
L 1172 1153 
Q 1172 725 1289 603 
Q 1406 481 1766 481 
L 2356 481 
L 2356 0 
L 1766 0 
Q 1100 0 847 248 
Q 594 497 594 1153 
L 594 3053 
L 172 3053 
L 172 3500 
L 594 3500 
L 594 4494 
L 1172 4494 
z
" transform="scale(0.015625)"/>
      <path id="DejaVuSans-20" transform="scale(0.015625)"/>
      <path id="DejaVuSans-6f" d="M 1959 3097 
Q 1497 3097 1228 2736 
Q 959 2375 959 1747 
Q 959 1119 1226 758 
Q 1494 397 1959 397 
Q 2419 397 2687 759 
Q 2956 1122 2956 1747 
Q 2956 2369 2687 2733 
Q 2419 3097 1959 3097 
z
M 1959 3584 
Q 2709 3584 3137 3096 
Q 3566 2609 3566 1747 
Q 3566 888 3137 398 
Q 2709 -91 1959 -91 
Q 1206 -91 779 398 
Q 353 888 353 1747 
Q 353 2609 779 3096 
Q 1206 3584 1959 3584 
z
" transform="scale(0.015625)"/>
      <path id="DejaVuSans-67" d="M 2906 1791 
Q 2906 2416 2648 2759 
Q 2391 3103 1925 3103 
Q 1463 3103 1205 2759 
Q 947 2416 947 1791 
Q 947 1169 1205 825 
Q 1463 481 1925 481 
Q 2391 481 2648 825 
Q 2906 1169 2906 1791 
z
M 3481 434 
Q 3481 -459 3084 -895 
Q 2688 -1331 1869 -1331 
Q 1566 -1331 1297 -1286 
Q 1028 -1241 775 -1147 
L 775 -588 
Q 1028 -725 1275 -790 
Q 1522 -856 1778 -856 
Q 2344 -856 2625 -561 
Q 2906 -266 2906 331 
L 2906 616 
Q 2728 306 2450 153 
Q 2172 0 1784 0 
Q 1141 0 747 490 
Q 353 981 353 1791 
Q 353 2603 747 3093 
Q 1141 3584 1784 3584 
Q 2172 3584 2450 3431 
Q 2728 3278 2906 2969 
L 2906 3500 
L 3481 3500 
L 3481 434 
z
" transform="scale(0.015625)"/>
      <path id="DejaVuSans-4e" d="M 628 4666 
L 1478 4666 
L 3547 763 
L 3547 4666 
L 4159 4666 
L 4159 0 
L 3309 0 
L 1241 3903 
L 1241 0 
L 628 0 
L 628 4666 
z
" transform="scale(0.015625)"/>
      <path id="DejaVuSans-72" d="M 2631 2963 
Q 2534 3019 2420 3045 
Q 2306 3072 2169 3072 
Q 1681 3072 1420 2755 
Q 1159 2438 1159 1844 
L 1159 0 
L 581 0 
L 581 3500 
L 1159 3500 
L 1159 2956 
Q 1341 3275 1631 3429 
Q 1922 3584 2338 3584 
Q 2397 3584 2469 3576 
Q 2541 3569 2628 3553 
L 2631 2963 
z
" transform="scale(0.015625)"/>
      <path id="DejaVuSans-6d" d="M 3328 2828 
Q 3544 3216 3844 3400 
Q 4144 3584 4550 3584 
Q 5097 3584 5394 3201 
Q 5691 2819 5691 2113 
L 5691 0 
L 5113 0 
L 5113 2094 
Q 5113 2597 4934 2840 
Q 4756 3084 4391 3084 
Q 3944 3084 3684 2787 
Q 3425 2491 3425 1978 
L 3425 0 
L 2847 0 
L 2847 2094 
Q 2847 2600 2669 2842 
Q 2491 3084 2119 3084 
Q 1678 3084 1418 2786 
Q 1159 2488 1159 1978 
L 1159 0 
L 581 0 
L 581 3500 
L 1159 3500 
L 1159 2956 
Q 1356 3278 1631 3431 
Q 1906 3584 2284 3584 
Q 2666 3584 2933 3390 
Q 3200 3197 3328 2828 
z
" transform="scale(0.015625)"/>
      <path id="DejaVuSans-6c" d="M 603 4863 
L 1178 4863 
L 1178 0 
L 603 0 
L 603 4863 
z
" transform="scale(0.015625)"/>
      <path id="DejaVuSans-69" d="M 603 3500 
L 1178 3500 
L 1178 0 
L 603 0 
L 603 3500 
z
M 603 4863 
L 1178 4863 
L 1178 4134 
L 603 4134 
L 603 4863 
z
" transform="scale(0.015625)"/>
      <path id="DejaVuSans-70" d="M 1159 525 
L 1159 -1331 
L 581 -1331 
L 581 3500 
L 1159 3500 
L 1159 2969 
Q 1341 3281 1617 3432 
Q 1894 3584 2278 3584 
Q 2916 3584 3314 3078 
Q 3713 2572 3713 1747 
Q 3713 922 3314 415 
Q 2916 -91 2278 -91 
Q 1894 -91 1617 61 
Q 1341 213 1159 525 
z
M 3116 1747 
Q 3116 2381 2855 2742 
Q 2594 3103 2138 3103 
Q 1681 3103 1420 2742 
Q 1159 2381 1159 1747 
Q 1159 1113 1420 752 
Q 1681 391 2138 391 
Q 2594 391 2855 752 
Q 3116 1113 3116 1747 
z
" transform="scale(0.015625)"/>
      <path id="DejaVuSans-68" d="M 3513 2113 
L 3513 0 
L 2938 0 
L 2938 2094 
Q 2938 2591 2744 2837 
Q 2550 3084 2163 3084 
Q 1697 3084 1428 2787 
Q 1159 2491 1159 1978 
L 1159 0 
L 581 0 
L 581 4863 
L 1159 4863 
L 1159 2956 
Q 1366 3272 1645 3428 
Q 1925 3584 2291 3584 
Q 2894 3584 3203 3211 
Q 3513 2838 3513 2113 
z
" transform="scale(0.015625)"/>
      <path id="DejaVuSans-66" d="M 2375 4863 
L 2375 4384 
L 1825 4384 
Q 1516 4384 1395 4259 
Q 1275 4134 1275 3809 
L 1275 3500 
L 2222 3500 
L 2222 3053 
L 1275 3053 
L 1275 0 
L 697 0 
L 697 3053 
L 147 3053 
L 147 3500 
L 697 3500 
L 697 3744 
Q 697 4328 969 4595 
Q 1241 4863 1831 4863 
L 2375 4863 
z
" transform="scale(0.015625)"/>
     </defs>
     <use xlink:href="#DejaVuSans-45"/>
     <use xlink:href="#DejaVuSans-78" x="63.183594"/>
     <use xlink:href="#DejaVuSans-74" x="122.363281"/>
     <use xlink:href="#DejaVuSans-5f" x="161.572266"/>
     <use xlink:href="#DejaVuSans-35" x="211.572266"/>
     <use xlink:href="#DejaVuSans-30" x="275.195312"/>
     <use xlink:href="#DejaVuSans-20" x="338.818359"/>
     <use xlink:href="#DejaVuSans-4c" x="370.605469"/>
     <use xlink:href="#DejaVuSans-6f" x="424.568359"/>
     <use xlink:href="#DejaVuSans-67" x="485.75"/>
     <use xlink:href="#DejaVuSans-20" x="549.226562"/>
     <use xlink:href="#DejaVuSans-4e" x="581.013672"/>
     <use xlink:href="#DejaVuSans-6f" x="655.818359"/>
     <use xlink:href="#DejaVuSans-72" x="717"/>
     <use xlink:href="#DejaVuSans-6d" x="756.363281"/>
     <use xlink:href="#DejaVuSans-61" x="853.775391"/>
     <use xlink:href="#DejaVuSans-6c" x="915.054688"/>
     <use xlink:href="#DejaVuSans-69" x="942.837891"/>
     <use xlink:href="#DejaVuSans-73" x="970.621094"/>
     <use xlink:href="#DejaVuSans-65" x="1022.720703"/>
     <use xlink:href="#DejaVuSans-64" x="1084.244141"/>
     <use xlink:href="#DejaVuSans-20" x="1147.720703"/>
     <use xlink:href="#DejaVuSans-52" x="1179.507812"/>
     <use xlink:href="#DejaVuSans-65" x="1244.490234"/>
     <use xlink:href="#DejaVuSans-61" x="1306.013672"/>
     <use xlink:href="#DejaVuSans-64" x="1367.292969"/>
     <use xlink:href="#DejaVuSans-73" x="1430.769531"/>
     <use xlink:href="#DejaVuSans-20" x="1482.869141"/>
     <use xlink:href="#DejaVuSans-70" x="1514.65625"/>
     <use xlink:href="#DejaVuSans-65" x="1578.132812"/>
     <use xlink:href="#DejaVuSans-72" x="1639.65625"/>
     <use xlink:href="#DejaVuSans-20" x="1680.769531"/>
     <use xlink:href="#DejaVuSans-6c" x="1712.556641"/>
     <use xlink:href="#DejaVuSans-65" x="1740.339844"/>
     <use xlink:href="#DejaVuSans-6e" x="1801.863281"/>
     <use xlink:href="#DejaVuSans-67" x="1865.242188"/>
     <use xlink:href="#DejaVuSans-74" x="1928.71875"/>
     <use xlink:href="#DejaVuSans-68" x="1967.927734"/>
     <use xlink:href="#DejaVuSans-20" x="2031.306641"/>
     <use xlink:href="#DejaVuSans-6f" x="2063.09375"/>
     <use xlink:href="#DejaVuSans-66" x="2124.275391"/>
     <use xlink:href="#DejaVuSans-20" x="2159.480469"/>
     <use xlink:href="#DejaVuSans-56" x="2191.267578"/>
     <use xlink:href="#DejaVuSans-43" x="2259.675781"/>
     <use xlink:href="#DejaVuSans-47" x="2329.5"/>
    </g>
   </g>
  </g>
 </g>
 <defs>
  <clipPath id="p4b9f1b9727">
   <rect x="45.478125" y="22.318125" width="357.12" height="266.112"/>
  </clipPath>
 </defs>
</svg>
